<?xml version="1.0" encoding="utf-8"?><!-- Uploaded to: SVG Repo, www.svgrepo.com, Generator: SVG Repo Mixer Tools -->
<svg fill="#000000" width="800px" height="800px" viewBox="0 0 24 24" id="tennis-ball" data-name="Flat Color" xmlns="http://www.w3.org/2000/svg" class="icon flat-color"><circle id="primary" cx="12" cy="12" r="10" style="fill: rgb(0, 0, 0);"></circle><path id="secondary" d="M21.91,10.69a9.4,9.4,0,0,0-1.28.09,12.22,12.22,0,0,0-9.85,9.85,9.4,9.4,0,0,0-.09,1.28A9.4,9.4,0,0,0,12,22l.69,0a7.9,7.9,0,0,1,.07-1.07,10.09,10.09,0,0,1,8.15-8.15,7.57,7.57,0,0,1,.94-.07H22c0-.23,0-.46,0-.69A9.4,9.4,0,0,0,21.91,10.69ZM12,2l-.69,0a7.9,7.9,0,0,1-.07,1.07,10.09,10.09,0,0,1-8.15,8.15,5.45,5.45,0,0,1-1.06,0c0,.23,0,.47,0,.71a9.4,9.4,0,0,0,.09,1.31h.05a8.69,8.69,0,0,0,1.23-.09,12.22,12.22,0,0,0,9.85-9.85,9.4,9.4,0,0,0,.09-1.28A9.4,9.4,0,0,0,12,2Z" style="fill: rgb(44, 169, 188);"></path></svg>